<svg version="1.1" id="Layer_1" xmlns="http://www.w3.org/2000/svg" xmlns:xlink="http://www.w3.org/1999/xlink" x="0px" y="0px"
	 width="100%" viewBox="0 0 500 500" enable-background="new 0 0 500 500" xml:space="preserve">
<path fill="#010101" opacity="1.000000" stroke="none" 
	d="
M1.000000,182.000000 
	C1.000000,121.348358 1.000000,61.196712 1.000000,1.022534 
	C167.610016,1.022534 334.220062,1.022534 500.915039,1.022534 
	C500.915039,167.568375 500.915039,334.136810 500.915039,500.852631 
	C334.333435,500.852631 167.666733,500.852631 1.000000,500.852631 
	C1.000000,394.779816 1.000000,288.639893 1.000000,182.000000 
M226.161514,237.713318 
	C228.917053,228.675323 231.672592,219.637329 234.428146,210.599350 
	C223.406342,226.571167 207.352356,232.154922 189.629471,233.977188 
	C174.809250,235.501022 159.889069,236.052750 144.812134,237.048218 
	C147.929657,232.258530 151.214676,227.485718 154.190002,222.527054 
	C155.724380,219.969818 157.441696,219.519104 160.277008,220.085785 
	C193.421661,226.710129 222.453079,212.000671 236.190765,181.122238 
	C249.627808,150.919586 249.983231,119.806328 240.459564,88.543114 
	C235.129486,71.046097 225.365616,56.281834 209.362640,46.610069 
	C174.656296,25.634485 131.244614,40.018551 114.065750,77.878517 
	C104.876183,98.131096 102.340561,119.510872 104.281975,141.294128 
	C107.300102,175.158340 118.900208,204.088608 153.772354,218.884125 
	C147.277878,227.685349 140.914917,236.308334 135.087479,244.205597 
	C140.210648,242.511887 145.618286,240.124313 151.277145,238.988632 
	C160.653275,237.106934 169.324799,240.444611 177.781769,244.113541 
	C187.526215,248.340988 197.565475,250.867722 208.309113,250.011993 
	C218.402161,249.208099 223.648132,245.879364 226.161514,237.713318 
M359.808563,304.780792 
	C381.700867,350.396332 387.520996,399.030151 387.424469,450.124420 
	C384.193451,448.723969 381.513336,448.163635 379.647522,446.619446 
	C376.467529,443.987579 373.217560,441.111511 371.013977,437.684143 
	C360.144989,420.778778 348.823547,404.091217 339.151550,386.507355 
	C326.350098,363.234131 315.160370,339.079651 302.772736,315.570160 
	C299.257019,308.897888 294.497681,302.677887 289.373413,297.111450 
	C283.905090,291.171234 276.389404,289.518738 268.290314,290.418304 
	C264.141235,290.879120 262.974854,292.612396 262.986816,296.839905 
	C263.148682,353.999207 263.095459,411.159119 263.095459,468.318878 
	C263.095459,469.763580 263.095459,471.208282 263.095459,472.639374 
	C275.756226,472.639374 287.916046,472.639374 300.660767,472.639374 
	C273.238861,423.204926 266.542419,369.898041 266.506287,313.705200 
	C269.110657,315.504395 271.147522,316.341858 272.337616,317.848297 
	C275.108063,321.355042 277.844971,324.985992 279.926239,328.920624 
	C285.515961,339.487976 290.671326,350.283936 296.148987,360.911896 
	C310.688049,389.120972 324.318085,417.852386 342.861206,443.798065 
	C350.049316,453.855713 357.771851,463.470123 368.460815,470.135315 
	C373.950134,473.558167 379.744537,475.555695 386.454376,474.395752 
	C389.960663,473.789642 390.982971,472.414825 390.975769,468.856781 
	C390.858765,411.197327 390.894897,353.537567 390.880188,295.877869 
	C390.879852,294.615448 390.689178,293.353058 390.599884,292.247070 
	C378.129242,292.247070 366.061890,292.247070 353.485626,292.247070 
	C355.601532,296.488434 357.508850,300.311737 359.808563,304.780792 
M232.717392,425.780060 
	C221.827347,390.036438 211.066513,354.252472 199.932785,318.584930 
	C197.832413,311.856262 195.140900,304.971375 191.164413,299.239166 
	C182.567261,286.846130 166.748886,286.873932 157.958145,299.111969 
	C154.450241,303.995453 151.845261,309.822052 150.057877,315.599426 
	C137.836502,355.102478 125.946739,394.708099 113.939156,434.277344 
	C110.056526,447.071991 106.141068,459.856689 102.187775,472.819275 
	C115.501190,472.819275 128.296936,472.819275 140.354736,472.819275 
	C139.758484,450.970917 139.166687,429.285889 138.569366,407.398285 
	C159.717300,407.398285 179.657639,407.398285 199.641388,407.398285 
	C206.182861,429.338806 212.673660,451.109344 219.105057,472.680603 
	C228.547684,472.680603 237.576675,472.680603 246.840866,472.680603 
	C242.131287,457.062866 237.531525,441.809265 232.717392,425.780060 
M280.505615,38.971249 
	C276.046051,38.971249 271.586487,38.971249 266.750061,38.971249 
	C266.750061,51.671646 266.741669,63.951263 266.751648,76.230865 
	C266.780518,111.711006 266.568024,147.193832 266.951996,182.670181 
	C267.152985,201.236221 279.219360,215.913742 297.163055,220.040497 
	C320.019806,225.297180 340.214294,219.094086 357.012054,203.299133 
	C381.175964,180.577789 391.947845,151.247528 393.827545,118.978813 
	C395.346069,92.911079 394.356842,66.697128 394.456940,40.547962 
	C394.458679,40.093414 394.169373,39.637756 394.079224,39.370384 
	C385.371796,39.370384 376.814148,39.370384 368.344177,39.370384 
	C368.344177,85.237045 368.343109,130.704498 368.344910,176.171951 
	C368.345398,188.385727 364.559357,193.521027 352.566345,195.971130 
	C335.770386,199.402435 318.745422,198.692673 301.814819,197.294113 
	C295.783203,196.795883 289.686981,195.150497 283.984131,193.043823 
	C274.951904,189.707245 270.622253,182.465820 270.081757,172.996323 
	C269.892548,169.681900 269.906311,166.310455 270.279755,163.016327 
	C274.629028,124.653358 284.076233,87.571663 298.525085,51.770599 
	C300.220764,47.569046 302.154510,43.463577 304.128296,38.971249 
	C296.154846,38.971249 288.828979,38.971249 280.505615,38.971249 
M485.980896,251.500000 
	C485.980896,274.789948 485.980896,298.079895 485.980896,321.369843 
	C486.212372,321.367615 486.443817,321.365356 486.675293,321.363129 
	C486.675293,274.453857 486.675293,227.544586 486.675293,180.635315 
	C486.443817,180.635086 486.212372,180.634857 485.980896,180.634628 
	C485.980896,203.923080 485.980896,227.211548 485.980896,251.500000 
M16.016998,206.500000 
	C16.016998,197.879623 16.016998,189.259262 16.016998,180.638885 
	C15.788038,180.644745 15.559078,180.650604 15.330118,180.656448 
	C15.330118,227.219437 15.330118,273.782440 15.330118,320.345428 
	C15.559078,320.345306 15.788038,320.345215 16.016998,320.345123 
	C16.016998,282.730072 16.016998,245.115036 16.016998,206.500000 
M285.500000,485.997864 
	C250.874969,485.997864 216.249954,485.997864 181.624924,485.997864 
	C181.626389,486.227509 181.627869,486.457184 181.629333,486.686829 
	C227.877090,486.686829 274.124847,486.686829 320.372620,486.686829 
	C320.373627,486.457184 320.374634,486.227509 320.375641,485.997864 
	C309.083771,485.997864 297.791870,485.997864 285.500000,485.997864 
M225.955093,16.002069 
	C246.436325,16.002069 266.917572,16.002069 287.398804,16.002069 
	C287.396240,15.777630 287.393677,15.553191 287.391113,15.328752 
	C266.145020,15.328752 244.898926,15.328752 223.652832,15.328752 
	C223.649536,15.466683 223.646255,15.604615 223.642975,15.742547 
	C224.117508,15.828568 224.592056,15.914588 225.955093,16.002069 
z"/>
<path fill="#FAFAFA" opacity="1.000000" stroke="none" 
	d="
M226.080231,238.096649 
	C223.648132,245.879364 218.402161,249.208099 208.309113,250.011993 
	C197.565475,250.867722 187.526215,248.340988 177.781769,244.113541 
	C169.324799,240.444611 160.653275,237.106934 151.277145,238.988632 
	C145.618286,240.124313 140.210648,242.511887 135.087479,244.205597 
	C140.914917,236.308334 147.277878,227.685349 153.772354,218.884125 
	C118.900208,204.088608 107.300102,175.158340 104.281975,141.294128 
	C102.340561,119.510872 104.876183,98.131096 114.065750,77.878517 
	C131.244614,40.018551 174.656296,25.634485 209.362640,46.610069 
	C225.365616,56.281834 235.129486,71.046097 240.459564,88.543114 
	C249.983231,119.806328 249.627808,150.919586 236.190765,181.122238 
	C222.453079,212.000671 193.421661,226.710129 160.277008,220.085785 
	C157.441696,219.519104 155.724380,219.969818 154.190002,222.527054 
	C151.214676,227.485718 147.929657,232.258530 144.812134,237.048218 
	C159.889069,236.052750 174.809250,235.501022 189.629471,233.977188 
	C207.352356,232.154922 223.406342,226.571167 234.428146,210.599350 
	C231.672592,219.637329 228.917053,228.675323 226.080231,238.096649 
M192.449387,94.843178 
	C192.639267,88.023819 193.244644,81.184631 192.920471,74.389793 
	C192.448318,64.493080 190.148468,54.985157 184.322586,46.673782 
	C179.809967,40.235893 175.379303,38.355061 168.059464,40.921528 
	C163.781876,42.421333 159.463257,44.663315 156.047882,47.600288 
	C146.218216,56.053116 141.484970,67.677254 138.135315,79.791771 
	C131.344604,104.351364 130.644470,129.393219 133.407562,154.560623 
	C135.083191,169.822876 138.236511,184.812134 146.019150,198.301315 
	C148.917511,203.324860 152.814789,207.772095 156.831192,213.268463 
	C176.836960,175.413483 188.849731,136.875687 192.449387,94.843178 
M199.956009,53.593872 
	C196.226379,49.034187 192.285294,44.756363 186.387909,42.985779 
	C194.211823,54.568005 195.800629,67.496513 195.725494,80.774811 
	C195.508560,119.114380 185.564392,155.362289 171.498199,190.632965 
	C168.265701,198.738434 163.850952,206.372406 159.987900,214.207870 
	C170.829086,221.495331 183.990616,220.480560 194.008545,211.571960 
	C203.568451,203.070663 208.559891,191.883606 211.996552,179.937485 
	C219.532333,153.742508 219.938431,127.047386 216.545822,100.252823 
	C214.465561,83.823059 210.267487,67.950356 199.956009,53.593872 
z"/>
<path fill="#FBFBFB" opacity="1.000000" stroke="none" 
	d="
M359.612366,304.457886 
	C357.508850,300.311737 355.601532,296.488434 353.485626,292.247070 
	C366.061890,292.247070 378.129242,292.247070 390.599884,292.247070 
	C390.689178,293.353058 390.879852,294.615448 390.880188,295.877869 
	C390.894897,353.537567 390.858765,411.197327 390.975769,468.856781 
	C390.982971,472.414825 389.960663,473.789642 386.454376,474.395752 
	C379.744537,475.555695 373.950134,473.558167 368.460815,470.135315 
	C357.771851,463.470123 350.049316,453.855713 342.861206,443.798065 
	C324.318085,417.852386 310.688049,389.120972 296.148987,360.911896 
	C290.671326,350.283936 285.515961,339.487976 279.926239,328.920624 
	C277.844971,324.985992 275.108063,321.355042 272.337616,317.848297 
	C271.147522,316.341858 269.110657,315.504395 266.506287,313.705200 
	C266.542419,369.898041 273.238861,423.204926 300.660767,472.639374 
	C287.916046,472.639374 275.756226,472.639374 263.095459,472.639374 
	C263.095459,471.208282 263.095459,469.763580 263.095459,468.318878 
	C263.095459,411.159119 263.148682,353.999207 262.986816,296.839905 
	C262.974854,292.612396 264.141235,290.879120 268.290314,290.418304 
	C276.389404,289.518738 283.905090,291.171234 289.373413,297.111450 
	C294.497681,302.677887 299.257019,308.897888 302.772736,315.570160 
	C315.160370,339.079651 326.350098,363.234131 339.151550,386.507355 
	C348.823547,404.091217 360.144989,420.778778 371.013977,437.684143 
	C373.217560,441.111511 376.467529,443.987579 379.647522,446.619446 
	C381.513336,448.163635 384.193451,448.723969 387.424469,450.124420 
	C387.520996,399.030151 381.700867,350.396332 359.612366,304.457886 
z"/>
<path fill="#FCFCFC" opacity="1.000000" stroke="none" 
	d="
M232.824585,426.167847 
	C237.531525,441.809265 242.131287,457.062866 246.840866,472.680603 
	C237.576675,472.680603 228.547684,472.680603 219.105057,472.680603 
	C212.673660,451.109344 206.182861,429.338806 199.641388,407.398285 
	C179.657639,407.398285 159.717300,407.398285 138.569366,407.398285 
	C139.166687,429.285889 139.758484,450.970917 140.354736,472.819275 
	C128.296936,472.819275 115.501190,472.819275 102.187775,472.819275 
	C106.141068,459.856689 110.056526,447.071991 113.939156,434.277344 
	C125.946739,394.708099 137.836502,355.102478 150.057877,315.599426 
	C151.845261,309.822052 154.450241,303.995453 157.958145,299.111969 
	C166.748886,286.873932 182.567261,286.846130 191.164413,299.239166 
	C195.140900,304.971375 197.832413,311.856262 199.932785,318.584930 
	C211.066513,354.252472 221.827347,390.036438 232.824585,426.167847 
M191.139221,379.324158 
	C184.466507,357.772705 177.912155,336.182922 170.966797,314.719696 
	C170.126862,312.124115 167.319885,308.577271 165.166077,308.386292 
	C162.309692,308.132996 158.051590,309.957611 156.439407,312.297424 
	C153.211685,316.981873 150.252701,322.402618 149.169464,327.910126 
	C145.937744,344.341309 143.379639,360.922638 141.136551,377.523438 
	C139.946533,386.330719 139.954422,395.299835 139.417557,404.262634 
	C159.437759,404.262634 178.782471,404.262634 198.691330,404.262634 
	C196.164230,395.887238 193.780472,387.986908 191.139221,379.324158 
z"/>
<path fill="#FBFBFB" opacity="1.000000" stroke="none" 
	d="
M281.004364,38.971249 
	C288.828979,38.971249 296.154846,38.971249 304.128296,38.971249 
	C302.154510,43.463577 300.220764,47.569046 298.525085,51.770599 
	C284.076233,87.571663 274.629028,124.653358 270.279755,163.016327 
	C269.906311,166.310455 269.892548,169.681900 270.081757,172.996323 
	C270.622253,182.465820 274.951904,189.707245 283.984131,193.043823 
	C289.686981,195.150497 295.783203,196.795883 301.814819,197.294113 
	C318.745422,198.692673 335.770386,199.402435 352.566345,195.971130 
	C364.559357,193.521027 368.345398,188.385727 368.344910,176.171951 
	C368.343109,130.704498 368.344177,85.237045 368.344177,39.370384 
	C376.814148,39.370384 385.371796,39.370384 394.079224,39.370384 
	C394.169373,39.637756 394.458679,40.093414 394.456940,40.547962 
	C394.356842,66.697128 395.346069,92.911079 393.827545,118.978813 
	C391.947845,151.247528 381.175964,180.577789 357.012054,203.299133 
	C340.214294,219.094086 320.019806,225.297180 297.163055,220.040497 
	C279.219360,215.913742 267.152985,201.236221 266.951996,182.670181 
	C266.568024,147.193832 266.780518,111.711006 266.751648,76.230865 
	C266.741669,63.951263 266.750061,51.671646 266.750061,38.971249 
	C271.586487,38.971249 276.046051,38.971249 281.004364,38.971249 
z"/>
<path fill="#FFFFFF" opacity="1.000000" stroke="none" 
	d="
M485.980896,251.000000 
	C485.980896,227.211548 485.980896,203.923080 485.980896,180.634628 
	C486.212372,180.634857 486.443817,180.635086 486.675293,180.635315 
	C486.675293,227.544586 486.675293,274.453857 486.675293,321.363129 
	C486.443817,321.365356 486.212372,321.367615 485.980896,321.369843 
	C485.980896,298.079895 485.980896,274.789948 485.980896,251.000000 
z"/>
<path fill="#FFFFFF" opacity="1.000000" stroke="none" 
	d="
M16.016998,207.000000 
	C16.016998,245.115036 16.016998,282.730072 16.016998,320.345123 
	C15.788038,320.345215 15.559078,320.345306 15.330118,320.345428 
	C15.330118,273.782440 15.330118,227.219437 15.330118,180.656448 
	C15.559078,180.650604 15.788038,180.644745 16.016998,180.638885 
	C16.016998,189.259262 16.016998,197.879623 16.016998,207.000000 
z"/>
<path fill="#FFFFFF" opacity="1.000000" stroke="none" 
	d="
M286.000000,485.997864 
	C297.791870,485.997864 309.083771,485.997864 320.375641,485.997864 
	C320.374634,486.227509 320.373627,486.457184 320.372620,486.686829 
	C274.124847,486.686829 227.877090,486.686829 181.629333,486.686829 
	C181.627869,486.457184 181.626389,486.227509 181.624924,485.997864 
	C216.249954,485.997864 250.874969,485.997864 286.000000,485.997864 
z"/>
<path fill="#FFFFFF" opacity="1.000000" stroke="none" 
	d="
M225.510834,16.001339 
	C224.592056,15.914588 224.117508,15.828568 223.642975,15.742547 
	C223.646255,15.604615 223.649536,15.466683 223.652832,15.328752 
	C244.898926,15.328752 266.145020,15.328752 287.391113,15.328752 
	C287.393677,15.553191 287.396240,15.777630 287.398804,16.002069 
	C266.917572,16.002069 246.436325,16.002069 225.510834,16.001339 
z"/>
<path fill="#020202" opacity="1.000000" stroke="none" 
	d="
M192.392792,95.302322 
	C188.849731,136.875687 176.836960,175.413483 156.831192,213.268463 
	C152.814789,207.772095 148.917511,203.324860 146.019150,198.301315 
	C138.236511,184.812134 135.083191,169.822876 133.407562,154.560623 
	C130.644470,129.393219 131.344604,104.351364 138.135315,79.791771 
	C141.484970,67.677254 146.218216,56.053116 156.047882,47.600288 
	C159.463257,44.663315 163.781876,42.421333 168.059464,40.921528 
	C175.379303,38.355061 179.809967,40.235893 184.322586,46.673782 
	C190.148468,54.985157 192.448318,64.493080 192.920471,74.389793 
	C193.244644,81.184631 192.639267,88.023819 192.392792,95.302322 
z"/>
<path fill="#030303" opacity="1.000000" stroke="none" 
	d="
M200.176056,53.877625 
	C210.267487,67.950356 214.465561,83.823059 216.545822,100.252823 
	C219.938431,127.047386 219.532333,153.742508 211.996552,179.937485 
	C208.559891,191.883606 203.568451,203.070663 194.008545,211.571960 
	C183.990616,220.480560 170.829086,221.495331 159.987900,214.207870 
	C163.850952,206.372406 168.265701,198.738434 171.498199,190.632965 
	C185.564392,155.362289 195.508560,119.114380 195.725494,80.774811 
	C195.800629,67.496513 194.211823,54.568005 186.387909,42.985779 
	C192.285294,44.756363 196.226379,49.034187 200.176056,53.877625 
z"/>
<path fill="#030303" opacity="1.000000" stroke="none" 
	d="
M191.267975,379.705383 
	C193.780472,387.986908 196.164230,395.887238 198.691330,404.262634 
	C178.782471,404.262634 159.437759,404.262634 139.417557,404.262634 
	C139.954422,395.299835 139.946533,386.330719 141.136551,377.523438 
	C143.379639,360.922638 145.937744,344.341309 149.169464,327.910126 
	C150.252701,322.402618 153.211685,316.981873 156.439407,312.297424 
	C158.051590,309.957611 162.309692,308.132996 165.166077,308.386292 
	C167.319885,308.577271 170.126862,312.124115 170.966797,314.719696 
	C177.912155,336.182922 184.466507,357.772705 191.267975,379.705383 
z"/>
</svg>